<svg xmlns="http://www.w3.org/2000/svg" xmlns:xlink="http://www.w3.org/1999/xlink" width="28.331" height="40.422" viewBox="0 0 28.331 40.422"><defs><style>.a{fill:url(#a);}.b{fill:url(#b);}.c{fill:#fff;}</style><linearGradient id="a" x1="-0.137" y1="-0.024" x2="0.955" y2="1" gradientUnits="objectBoundingBox"><stop offset="0" stop-color="#1c85c8"/><stop offset="1" stop-color="#283c8c"/></linearGradient><linearGradient id="b" x1="-0.137" y1="-0.024" x2="0.955" y2="1" gradientUnits="objectBoundingBox"><stop offset="0" stop-color="#fff" stop-opacity="0.4"/><stop offset="1" stop-color="#283c8c" stop-opacity="0.2"/></linearGradient></defs><g transform="translate(-418 -317.999)"><g transform="translate(418 317.999)"><path class="a" d="M0,14.148a14.165,14.165,0,0,1,28.331,0c0,10.611-10.158,26.274-14.166,26.274S0,24.758,0,14.148Z" transform="translate(0 0)"/><g transform="translate(0.097 0)"><path class="b" d="M-260.163-213.116h0l-23.819-16.678a14.149,14.149,0,0,1,4.626-8.886,14.284,14.284,0,0,1,2.024-1.512,14.164,14.164,0,0,1,2.279-1.137,14.068,14.068,0,0,1,5.14-.965,14.182,14.182,0,0,1,14.166,14.166,21.071,21.071,0,0,1-.339,3.614,31.676,31.676,0,0,1-.932,3.813c-.385,1.251-.856,2.547-1.4,3.852-.519,1.244-1.106,2.5-1.744,3.732Z" transform="translate(283.982 242.293)"/><path class="c" d="M28.589,159.225l-8.415-2.894c-.525-.19-.415-.192-.936,0L10.773,159.2c-.519.188-.517.494.008.686l2.013.682a3.452,3.452,0,0,0-.961,2.8.92.92,0,0,0-.083,1.679,7.016,7.016,0,0,1-1.749,3.7,3.989,3.989,0,0,0,1.36.765c1.676-.721,1.472-2.635,1.342-4.539a.918.918,0,0,0-.052-1.523,3.087,3.087,0,0,1,1.013-2.522c.006-.015.025-.029.058-.043l5.784-2.338a.419.419,0,0,1,.544.232l.008.017a.417.417,0,0,1-.232.544l-4.887,1.955,4.374,1.483c.525.19.415.192.936,0l8.349-2.869c.519-.188.517-.5-.008-.684ZM19.3,163.886l-5.3-1.8v1.35a1.365,1.365,0,0,1,.43,1.023,1.437,1.437,0,0,1-.341.941.738.738,0,0,0,.368.484,11.532,11.532,0,0,0,10.766-.172,1.062,1.062,0,0,0,.451-.726v-2.974l-5.439,1.873C19.717,164.077,19.821,164.075,19.3,163.886Z" transform="translate(-5.456 -148.906)"/></g></g></g></svg>